<svg id="svg" version="1.1" xmlns="http://www.w3.org/2000/svg" xmlns:xlink="http://www.w3.org/1999/xlink" width="400" height="400" viewBox="0, 0, 400,400"><g id="svgg"><path id="path0" d="M188.672 63.537 C 139.110 66.101,102.106 113.236,111.131 162.305 C 112.733 171.013,115.864 180.958,117.161 181.457 C 119.093 182.199,130.353 181.886,131.172 181.067 C 131.243 180.996,130.776 179.898,130.134 178.627 C 119.968 158.488,121.488 129.531,133.780 109.154 C 158.582 68.041,212.770 58.725,253.023 88.653 C 256.257 91.057,254.884 88.596,251.148 85.292 C 236.510 72.346,219.294 65.060,200.067 63.673 C 194.957 63.305,193.497 63.287,188.672 63.537 M302.930 67.467 C 294.129 68.684,291.138 70.683,252.685 101.051 C 246.127 106.230,244.029 107.689,243.310 107.575 C 242.800 107.493,235.176 106.283,226.367 104.884 C 197.413 100.288,188.871 98.878,179.096 97.081 C 168.354 95.107,168.114 95.111,164.642 97.306 C 161.858 99.066,158.984 101.543,158.984 102.182 C 158.984 102.515,169.719 108.074,186.523 116.442 C 201.955 124.126,214.063 130.380,214.063 130.667 C 214.063 131.332,211.671 133.461,203.484 140.085 C 199.797 143.067,195.647 146.431,194.263 147.559 C 191.052 150.173,189.803 150.087,178.320 146.467 C 175.161 145.471,166.758 143.015,164.943 142.557 C 162.468 141.933,161.410 142.330,157.342 145.409 C 153.103 148.618,152.705 148.050,163.442 154.115 C 174.667 160.456,178.051 162.455,178.335 162.914 C 179.906 165.456,150.257 180.456,137.037 183.807 C 118.301 188.557,109.534 185.572,106.827 173.523 L 106.013 169.898 105.301 173.409 C 98.959 204.645,139.593 203.475,184.054 171.142 L 186.271 169.529 187.407 171.190 C 196.457 184.431,196.058 184.006,198.286 182.789 C 200.845 181.391,200.996 180.734,200.855 171.582 C 200.747 164.582,200.804 163.672,201.350 163.672 C 203.251 163.672,224.678 151.622,237.085 143.577 C 244.583 138.715,243.496 138.306,249.199 148.132 C 251.229 151.630,253.879 156.162,255.087 158.203 C 256.296 160.244,259.190 165.166,261.520 169.141 C 266.944 178.395,266.138 177.687,269.381 176.045 C 276.873 172.252,276.609 173.438,274.842 151.544 C 274.089 142.208,273.288 131.758,273.064 128.320 C 272.839 124.883,272.554 121.191,272.431 120.117 L 272.207 118.164 277.412 114.085 C 300.833 95.729,300.264 96.193,305.210 91.419 C 320.099 77.045,318.976 65.248,302.930 67.467 M265.423 187.012 C 239.321 228.094,180.216 235.251,146.329 201.432 C 142.002 197.113,142.895 197.390,137.232 198.613 C 135.688 198.946,132.834 199.263,130.889 199.316 C 126.610 199.435,126.631 199.126,130.596 203.578 C 163.004 239.978,217.055 242.279,251.385 208.719 C 259.560 200.728,269.468 185.938,266.646 185.938 C 266.349 185.938,265.798 186.421,265.423 187.012 M186.607 247.573 L 185.518 247.711 185.630 251.297 L 185.742 254.883 191.113 254.991 L 196.484 255.100 196.490 270.031 C 196.494 278.242,196.640 285.187,196.816 285.464 C 197.049 285.833,198.173 285.937,201.009 285.855 L 204.883 285.742 204.985 270.410 L 205.087 255.078 210.705 255.078 C 214.844 255.078,216.369 254.950,216.499 254.590 C 216.689 254.067,216.541 248.040,216.335 247.862 C 216.140 247.694,187.825 247.420,186.607 247.573 M111.618 247.888 C 111.220 248.285,111.261 284.837,111.660 285.465 C 111.893 285.832,112.978 285.938,115.658 285.855 L 119.336 285.742 119.531 280.078 L 119.727 274.414 125.195 274.164 C 130.863 273.906,132.637 273.475,135.587 271.641 C 144.039 266.387,142.701 252.425,133.398 248.794 C 131.004 247.860,112.419 247.086,111.618 247.888 M147.431 248.181 C 147.314 248.485,147.273 254.775,147.340 262.160 L 147.461 275.586 148.490 277.781 C 154.363 290.305,174.896 289.343,179.065 276.348 C 179.607 274.660,179.683 272.462,179.595 261.114 L 179.492 247.852 175.586 247.852 L 171.680 247.852 171.474 260.547 C 171.326 269.640,171.125 273.575,170.764 274.414 C 168.670 279.287,161.606 280.494,158.072 276.582 C 155.908 274.187,155.766 273.264,155.508 259.961 L 155.273 247.852 151.458 247.740 C 148.453 247.652,147.598 247.745,147.431 248.181 M222.526 247.917 C 221.953 248.490,222.240 273.567,222.847 275.894 C 226.360 289.385,248.757 290.512,253.957 277.460 C 254.989 274.871,255.619 251.083,254.719 248.716 L 254.305 247.628 250.493 247.740 L 246.680 247.852 246.484 260.742 C 246.274 274.630,246.247 274.808,244.075 276.837 C 241.274 279.452,235.892 279.642,233.249 277.220 C 231.000 275.159,230.877 274.323,230.868 261.067 C 230.863 254.371,230.753 248.614,230.622 248.274 C 230.377 247.634,223.129 247.314,222.526 247.917 M278.385 247.917 C 278.242 248.060,278.124 253.905,278.123 260.905 C 278.121 268.870,277.961 274.218,277.695 275.195 C 276.513 279.533,272.152 280.042,269.408 276.164 C 268.065 274.265,268.138 274.265,264.116 276.142 C 259.885 278.116,259.918 278.069,261.338 280.030 C 268.539 289.971,284.401 288.443,286.284 277.626 C 286.907 274.053,286.877 248.752,286.250 248.125 C 285.751 247.626,278.859 247.444,278.385 247.917 M129.300 255.711 C 132.478 256.982,133.788 261.449,131.791 264.206 C 130.393 266.137,128.334 266.797,123.705 266.797 L 119.531 266.797 119.531 260.938 L 119.531 255.078 123.625 255.078 C 126.487 255.078,128.194 255.268,129.300 255.711 M110.593 298.221 C 104.997 300.036,102.045 304.237,102.441 309.826 C 102.776 314.569,105.049 316.824,111.501 318.814 C 118.074 320.841,119.531 321.896,119.531 324.623 C 119.531 328.999,112.052 329.849,107.538 325.985 C 105.464 324.210,105.583 324.178,103.101 327.172 C 100.359 330.479,100.358 330.159,103.109 332.184 C 113.524 339.851,128.105 335.177,128.121 324.166 C 128.129 318.657,125.451 315.891,117.737 313.440 C 112.659 311.827,111.460 311.059,111.110 309.197 C 110.313 304.944,116.693 303.247,121.414 306.455 C 123.370 307.783,123.448 307.753,125.515 304.880 C 127.715 301.821,127.708 301.903,125.879 300.714 C 121.603 297.934,114.867 296.835,110.593 298.221 M195.826 298.297 C 195.571 298.401,194.921 299.662,194.381 301.098 C 191.821 307.917,182.422 334.097,182.422 334.411 C 182.422 334.977,189.680 334.852,190.137 334.277 C 190.350 334.009,190.926 332.423,191.416 330.753 L 192.306 327.718 199.542 327.824 L 206.777 327.930 207.906 331.055 C 208.527 332.773,209.194 334.341,209.387 334.538 C 209.729 334.885,216.783 334.910,217.128 334.565 C 217.321 334.371,216.580 332.263,213.076 323.047 C 211.728 319.502,209.161 312.662,207.371 307.848 C 205.581 303.033,203.881 298.858,203.593 298.570 C 203.083 298.061,196.937 297.845,195.826 298.297 M146.094 316.560 C 146.094 332.725,146.160 334.708,146.712 334.919 C 147.838 335.351,152.950 335.175,153.438 334.687 C 153.781 334.344,153.906 331.177,153.906 322.874 L 153.906 311.528 155.843 314.260 C 156.908 315.763,160.513 320.859,163.852 325.586 C 170.770 335.376,170.374 335.026,174.243 334.766 L 177.148 334.570 177.148 316.602 L 177.148 298.633 173.340 298.521 L 169.531 298.409 169.531 309.556 C 169.531 321.363,169.511 321.482,167.930 319.223 C 167.372 318.426,163.801 313.423,159.993 308.105 L 153.071 298.438 149.582 298.438 L 146.094 298.438 146.094 316.560 M222.526 298.698 C 222.383 298.841,222.266 306.995,222.266 316.818 L 222.266 334.677 223.340 334.827 C 223.931 334.909,225.645 334.885,227.148 334.774 L 229.883 334.570 229.986 322.869 C 230.087 311.532,230.111 311.205,230.768 312.376 C 231.140 313.041,233.115 316.504,235.156 320.072 L 238.867 326.558 240.625 326.555 L 242.383 326.553 246.484 319.447 C 248.740 315.539,250.762 311.982,250.977 311.542 C 251.248 310.986,251.399 314.368,251.471 322.637 C 251.548 331.556,251.695 334.608,252.057 334.838 C 252.693 335.242,257.867 335.233,258.508 334.827 C 259.009 334.509,259.280 319.750,259.067 304.381 L 258.984 298.411 254.828 298.522 L 250.671 298.633 249.152 301.132 C 248.317 302.507,247.131 304.529,246.516 305.624 C 243.185 311.567,241.430 314.586,241.133 314.882 C 240.951 315.065,238.712 311.747,236.158 307.509 C 230.141 297.524,231.107 298.438,226.567 298.438 C 224.488 298.438,222.669 298.555,222.526 298.698 M277.211 298.730 C 277.055 298.985,274.619 305.543,268.757 321.484 C 263.352 336.186,263.397 335.156,268.164 335.156 C 271.659 335.156,271.931 334.931,273.233 330.948 L 274.289 327.717 281.383 327.823 L 288.477 327.930 289.562 331.055 C 290.911 334.934,291.202 335.158,294.899 335.150 C 299.182 335.142,299.121 335.292,297.116 329.659 C 293.592 319.756,285.904 299.454,285.489 298.954 C 285.021 298.390,277.542 298.188,277.211 298.730 M201.953 313.958 C 203.135 317.338,204.158 320.326,204.228 320.598 C 204.325 320.978,203.253 321.094,199.638 321.094 C 197.044 321.094,194.922 321.015,194.922 320.919 C 194.922 320.823,195.818 318.230,196.913 315.158 C 198.008 312.085,198.995 309.175,199.107 308.691 C 199.465 307.142,199.764 307.696,201.953 313.958 M283.928 314.376 C 285.033 317.663,285.938 320.520,285.938 320.724 C 285.938 320.935,284.015 321.094,281.445 321.094 C 278.372 321.094,276.953 320.955,276.953 320.653 C 276.953 319.728,281.419 307.827,281.662 308.106 C 281.803 308.267,282.822 311.088,283.928 314.376 " stroke="none" fill="#266899" fill-rule="evenodd"></path><path id="path1" d="M0.000 200.000 L 0.000 400.000 200.000 400.000 L 400.000 400.000 400.000 200.000 L 400.000 0.000 200.000 0.000 L 0.000 0.000 0.000 200.000 M204.281 63.881 C 223.788 66.296,240.112 74.152,254.374 87.988 C 254.761 88.364,255.078 88.837,255.078 89.039 C 255.078 90.100,253.926 89.640,250.451 87.190 C 211.979 60.071,161.330 68.486,135.962 106.213 C 121.686 127.444,119.496 156.266,130.453 178.702 C 131.080 179.986,131.513 181.117,131.416 181.214 C 130.743 181.887,119.673 182.263,117.578 181.683 C 116.404 181.359,115.677 179.985,114.048 175.007 C 96.788 122.277,131.392 68.914,186.328 63.540 C 190.194 63.162,199.972 63.347,204.281 63.881 M310.820 67.738 C 321.000 70.448,315.787 83.826,299.414 97.012 C 297.266 98.743,295.420 100.259,295.313 100.382 C 295.205 100.505,294.326 101.212,293.359 101.953 C 292.393 102.694,291.514 103.393,291.406 103.506 C 291.299 103.619,289.717 104.851,287.891 106.244 C 286.064 107.637,282.813 110.187,280.664 111.910 C 278.516 113.634,275.835 115.738,274.707 116.587 C 272.112 118.538,272.094 114.037,274.838 148.828 C 276.754 173.137,276.899 172.115,271.082 175.445 C 265.922 178.400,267.653 180.265,254.353 157.422 C 252.164 153.662,250.208 150.322,250.007 150.000 C 249.806 149.678,248.990 148.271,248.195 146.875 C 245.674 142.451,243.741 139.805,243.240 140.096 C 242.984 140.246,238.906 142.778,234.180 145.724 C 223.041 152.666,210.998 159.551,203.941 163.013 L 201.045 164.433 201.011 172.604 C 200.972 181.777,200.995 181.698,197.897 183.279 C 195.903 184.297,196.349 184.766,188.841 173.752 L 186.259 169.965 184.438 171.236 C 173.740 178.707,169.230 181.441,158.789 186.783 C 127.102 202.995,101.956 198.247,104.661 176.563 C 105.342 171.110,106.641 167.339,106.641 170.816 C 106.641 185.210,120.104 189.319,142.773 181.844 C 154.319 178.037,178.738 165.053,177.995 163.116 C 177.883 162.825,174.747 160.866,171.025 158.765 C 160.084 152.586,154.172 149.053,154.024 148.603 C 153.842 148.048,155.185 146.659,157.819 144.678 C 162.016 141.520,162.537 141.501,171.371 144.166 C 179.980 146.764,190.101 149.610,190.719 149.607 C 190.990 149.606,192.900 148.244,194.964 146.580 C 197.028 144.916,200.455 142.152,202.581 140.437 C 209.601 134.773,213.672 131.188,213.672 130.670 C 213.672 130.388,211.079 128.889,207.910 127.338 C 175.329 111.389,158.594 102.867,158.594 102.226 C 158.594 101.581,162.122 98.507,164.608 96.986 C 167.558 95.181,169.412 95.006,174.623 96.041 C 179.891 97.088,194.277 99.562,205.469 101.346 C 210.303 102.117,215.313 102.920,216.602 103.131 C 217.891 103.342,222.197 104.032,226.172 104.665 C 230.146 105.298,235.733 106.190,238.586 106.648 C 244.381 107.576,243.945 107.605,245.747 106.178 C 246.475 105.601,250.674 102.272,255.078 98.780 C 288.398 72.366,292.662 69.481,301.367 67.460 C 303.095 67.058,308.912 67.229,310.820 67.738 M267.380 185.933 C 267.511 186.145,267.259 187.131,266.820 188.124 C 266.381 189.117,266.136 190.112,266.274 190.337 C 266.419 190.571,266.340 190.630,266.090 190.476 C 265.822 190.310,265.249 191.004,264.608 192.271 C 257.087 207.141,238.307 222.283,219.708 228.474 C 186.868 239.404,152.727 229.339,128.399 201.555 L 126.524 199.414 130.547 199.195 C 132.760 199.074,136.357 198.567,138.541 198.066 L 142.512 197.157 145.963 200.648 C 179.732 234.807,236.008 228.793,264.428 187.988 C 266.055 185.653,266.860 185.092,267.380 185.933 M129.796 247.664 C 137.274 248.745,141.214 253.260,141.208 260.742 C 141.201 270.308,135.382 274.589,122.363 274.606 L 119.922 274.609 119.922 279.656 C 119.922 286.398,120.254 285.938,115.388 285.938 L 111.328 285.938 111.328 266.862 C 111.328 256.370,111.445 247.669,111.589 247.526 C 111.993 247.122,126.825 247.234,129.796 247.664 M154.961 247.507 L 155.820 247.737 155.937 260.294 C 156.050 272.297,156.092 272.921,156.898 274.414 C 159.723 279.650,166.357 280.167,169.727 275.415 L 170.898 273.762 171.009 261.002 C 171.139 246.132,170.757 247.266,175.633 247.266 C 180.396 247.266,180.079 246.334,180.075 260.282 C 180.072 273.015,179.788 276.010,178.305 278.937 C 172.715 289.968,152.407 289.104,148.123 277.653 C 147.293 275.435,146.703 248.882,147.456 247.664 C 147.718 247.240,153.515 247.119,154.961 247.507 M216.713 251.270 L 216.825 255.078 211.147 255.078 L 205.469 255.078 205.463 269.629 C 205.457 287.782,205.991 285.938,200.740 285.938 L 196.493 285.938 196.391 270.605 L 196.289 255.273 190.945 255.165 C 184.798 255.040,185.289 255.455,185.478 250.538 L 185.605 247.257 201.103 247.359 L 216.602 247.461 216.713 251.270 M230.346 247.572 C 230.685 247.787,230.843 251.352,230.932 260.750 C 231.067 274.887,231.047 274.768,233.667 277.229 C 235.567 279.013,240.642 279.108,242.969 277.402 C 246.077 275.123,246.484 272.991,246.484 258.993 L 246.484 247.712 248.633 247.444 C 249.814 247.296,251.748 247.296,252.930 247.444 L 255.078 247.712 255.078 261.090 C 255.078 277.254,254.908 278.179,251.200 282.163 C 245.541 288.244,232.325 288.362,226.229 282.387 C 223.333 279.548,222.569 277.506,222.295 271.875 C 221.849 262.683,222.095 248.004,222.701 247.620 C 223.362 247.202,229.701 247.162,230.346 247.572 M286.052 247.515 C 287.141 247.833,286.906 278.332,285.797 280.564 C 282.079 288.042,269.630 289.047,263.020 282.403 C 259.123 278.485,259.202 278.065,264.266 275.778 L 268.068 274.060 269.039 275.214 C 271.779 278.469,271.841 278.516,273.388 278.516 C 277.604 278.516,278.125 276.512,278.125 260.313 C 278.125 251.871,278.260 247.676,278.535 247.585 C 279.227 247.354,285.308 247.298,286.052 247.515 M119.922 260.887 L 119.922 266.797 122.832 266.797 C 126.308 266.797,129.198 266.221,130.285 265.312 C 133.037 263.011,133.201 259.401,130.672 256.800 C 129.611 255.708,128.060 255.319,124.121 255.154 L 119.922 254.978 119.922 260.887 M119.362 297.690 C 121.588 298.098,124.955 299.631,126.902 301.122 C 127.983 301.950,127.881 302.243,125.316 305.672 C 123.440 308.182,123.624 308.139,121.199 306.632 C 116.901 303.959,111.328 304.983,111.328 308.444 C 111.328 310.782,112.563 311.596,119.215 313.644 C 126.855 315.996,130.151 321.925,127.573 328.677 C 124.626 336.392,110.891 338.515,102.916 332.488 C 100.377 330.569,100.360 330.133,102.705 327.185 C 105.214 324.032,105.330 323.999,107.646 325.754 C 111.958 329.022,117.802 329.012,119.160 325.736 C 120.348 322.866,118.665 321.453,111.081 318.958 C 104.152 316.678,102.191 314.439,102.175 308.789 C 102.152 300.663,109.541 295.891,119.362 297.690 M151.711 298.296 L 153.531 298.546 157.296 303.863 C 159.367 306.787,161.707 310.059,162.497 311.133 C 163.287 312.207,165.061 314.701,166.439 316.674 L 168.945 320.262 169.141 309.252 L 169.336 298.242 172.460 298.126 C 174.178 298.063,175.981 298.110,176.467 298.232 L 177.351 298.454 177.250 316.708 L 177.148 334.961 173.744 335.074 L 170.339 335.186 169.158 333.511 C 168.509 332.590,166.837 330.254,165.442 328.320 C 159.581 320.193,154.688 313.146,154.688 312.834 C 154.688 312.650,154.512 312.500,154.297 312.500 C 154.045 312.500,153.906 316.541,153.906 323.842 L 153.906 335.184 149.902 335.072 L 145.898 334.961 145.797 316.729 C 145.702 299.605,145.737 298.485,146.383 298.317 C 147.468 298.034,149.731 298.025,151.711 298.296 M204.290 298.926 C 207.054 305.539,217.554 334.489,217.324 334.861 C 217.001 335.383,209.511 335.208,209.084 334.668 C 208.871 334.399,208.190 332.730,207.571 330.958 L 206.445 327.736 199.579 327.735 L 192.713 327.734 191.609 330.957 C 190.111 335.331,190.339 335.156,186.108 335.156 C 181.185 335.156,181.107 336.511,186.922 320.898 C 189.665 313.531,194.141 301.177,194.141 300.971 C 194.141 300.853,194.395 300.147,194.707 299.402 L 195.273 298.047 199.598 298.047 C 203.714 298.047,203.941 298.089,204.290 298.926 M231.092 298.590 C 231.187 298.698,238.242 310.392,239.495 312.518 L 240.904 314.909 242.192 312.630 C 242.900 311.377,243.825 309.736,244.248 308.984 C 244.670 308.232,246.238 305.552,247.731 303.027 L 250.446 298.438 254.914 298.438 L 259.383 298.438 259.281 316.699 L 259.180 334.961 255.273 334.961 L 251.367 334.961 251.172 323.527 L 250.977 312.093 246.901 319.230 C 242.389 327.129,242.543 326.941,240.625 326.941 C 238.722 326.941,238.898 327.159,234.360 319.218 L 230.273 312.068 230.170 323.411 L 230.066 334.754 229.192 334.973 C 228.711 335.094,226.912 335.140,225.194 335.077 L 222.070 334.961 221.962 317.578 C 221.830 296.391,221.422 298.498,225.687 298.348 C 228.477 298.251,230.889 298.359,231.092 298.590 M285.414 298.347 C 285.921 298.670,287.435 302.556,292.830 317.383 C 294.862 322.969,297.031 328.857,297.649 330.469 C 299.482 335.242,299.644 334.943,295.152 335.074 C 290.616 335.205,290.832 335.349,289.265 331.152 L 288.062 327.930 281.248 328.029 L 274.433 328.129 273.252 331.545 L 272.070 334.961 268.066 335.072 C 262.929 335.215,262.536 337.815,271.271 313.867 C 272.211 311.289,273.807 306.895,274.816 304.102 C 275.826 301.309,276.929 298.804,277.268 298.535 C 277.941 298.002,284.628 297.847,285.414 298.347 M199.457 308.594 C 198.453 311.258,195.313 320.459,195.313 320.739 C 195.313 320.934,197.246 321.094,199.609 321.094 C 201.973 321.094,203.906 320.961,203.906 320.798 C 203.906 319.613,199.677 308.011,199.457 308.594 M280.488 311.035 C 279.563 313.639,277.353 319.793,277.051 320.605 C 276.868 321.098,285.141 321.369,285.624 320.887 C 285.840 320.670,281.751 308.594,281.461 308.594 C 281.402 308.594,280.964 309.692,280.488 311.035 " stroke="none" fill="#e4e4e4" fill-rule="evenodd"></path><path id="path2" d="M305.649 91.113 L 303.711 93.164 305.762 91.226 C 307.667 89.424,307.992 89.063,307.700 89.063 C 307.638 89.063,306.716 89.985,305.649 91.113 M128.619 199.499 C 129.212 199.589,130.091 199.586,130.572 199.494 C 131.052 199.401,130.566 199.328,129.492 199.330 C 128.418 199.333,128.025 199.409,128.619 199.499 M133.594 207.227 C 134.761 208.408,135.803 209.375,135.911 209.375 C 136.018 209.375,135.151 208.408,133.984 207.227 C 132.817 206.045,131.775 205.078,131.667 205.078 C 131.560 205.078,132.427 206.045,133.594 207.227 M192.090 232.708 C 193.003 232.790,194.497 232.790,195.410 232.708 C 196.323 232.626,195.576 232.558,193.750 232.558 C 191.924 232.558,191.177 232.626,192.090 232.708 M171.266 260.938 C 171.266 267.061,171.320 269.565,171.386 266.504 C 171.452 263.442,171.452 258.433,171.386 255.371 C 171.320 252.310,171.266 254.814,171.266 260.938 M179.860 260.938 C 179.860 267.061,179.914 269.565,179.980 266.504 C 180.046 263.442,180.046 258.433,179.980 255.371 C 179.914 252.310,179.860 254.814,179.860 260.938 M119.697 274.742 C 119.586 275.029,119.557 276.655,119.630 278.355 L 119.765 281.445 119.843 278.047 L 119.922 274.648 122.168 274.507 L 124.414 274.366 122.156 274.293 C 120.575 274.241,119.837 274.376,119.697 274.742 M279.590 298.333 C 280.503 298.415,281.997 298.415,282.910 298.333 C 283.823 298.251,283.076 298.183,281.250 298.183 C 279.424 298.183,278.677 298.251,279.590 298.333 M169.312 309.375 C 169.312 315.283,169.366 317.700,169.433 314.746 C 169.499 311.792,169.499 306.958,169.433 304.004 C 169.366 301.050,169.312 303.467,169.312 309.375 M145.840 315.625 C 145.840 317.451,145.907 318.198,145.989 317.285 C 146.071 316.372,146.071 314.878,145.989 313.965 C 145.907 313.052,145.840 313.799,145.840 315.625 M145.862 328.125 C 145.862 331.670,145.921 333.120,145.994 331.348 C 146.066 329.575,146.066 326.675,145.994 324.902 C 145.921 323.130,145.862 324.580,145.862 328.125 M222.023 330.078 C 222.023 332.549,222.086 333.560,222.164 332.324 C 222.241 331.089,222.241 329.067,222.164 327.832 C 222.086 326.597,222.023 327.607,222.023 330.078 " stroke="none" fill="#8eaec8" fill-rule="evenodd"></path><path id="path3" d="M197.363 63.551 C 197.739 63.649,198.354 63.649,198.730 63.551 C 199.106 63.452,198.799 63.372,198.047 63.372 C 197.295 63.372,196.987 63.452,197.363 63.551 M124.909 196.377 C 125.611 196.464,126.666 196.462,127.253 196.373 C 127.840 196.284,127.266 196.213,125.977 196.215 C 124.688 196.217,124.207 196.290,124.909 196.377 M255.259 199.316 L 253.320 201.367 255.371 199.429 C 257.277 197.628,257.601 197.266,257.310 197.266 C 257.248 197.266,256.325 198.188,255.259 199.316 M146.094 201.367 C 147.261 202.549,148.303 203.516,148.411 203.516 C 148.518 203.516,147.651 202.549,146.484 201.367 C 145.317 200.186,144.275 199.219,144.167 199.219 C 144.060 199.219,144.927 200.186,146.094 201.367 M199.121 247.558 C 202.183 247.624,207.192 247.624,210.254 247.558 C 213.315 247.492,210.811 247.438,204.688 247.438 C 198.564 247.438,196.060 247.492,199.121 247.558 M155.468 258.906 L 155.663 270.117 155.768 259.206 C 155.825 253.204,155.737 248.159,155.573 247.994 C 155.408 247.829,155.361 252.739,155.468 258.906 M259.141 304.492 C 259.141 307.715,259.202 308.981,259.275 307.306 C 259.348 305.632,259.348 302.995,259.274 301.447 C 259.200 299.899,259.140 301.270,259.141 304.492 M145.864 305.859 C 145.864 309.619,145.922 311.157,145.994 309.277 C 146.066 307.397,146.066 304.321,145.994 302.441 C 145.922 300.562,145.864 302.100,145.864 305.859 M222.050 312.695 C 222.050 320.000,222.103 322.933,222.167 319.213 C 222.232 315.493,222.232 309.517,222.167 305.932 C 222.103 302.347,222.050 305.391,222.050 312.695 M259.096 317.383 C 259.099 318.457,259.175 318.850,259.265 318.256 C 259.354 317.663,259.352 316.784,259.259 316.303 C 259.167 315.823,259.093 316.309,259.096 317.383 M145.810 320.313 C 145.810 321.279,145.886 321.675,145.979 321.191 C 146.072 320.708,146.072 319.917,145.979 319.434 C 145.886 318.950,145.810 319.346,145.810 320.313 M259.132 330.078 C 259.132 332.549,259.196 333.560,259.273 332.324 C 259.351 331.089,259.351 329.067,259.273 327.832 C 259.196 326.597,259.132 327.607,259.132 330.078 M172.949 335.048 C 173.647 335.135,174.790 335.135,175.488 335.048 C 176.187 334.962,175.615 334.891,174.219 334.891 C 172.822 334.891,172.251 334.962,172.949 335.048 M184.277 335.041 C 184.761 335.134,185.552 335.134,186.035 335.041 C 186.519 334.948,186.123 334.872,185.156 334.872 C 184.189 334.872,183.794 334.948,184.277 335.041 M212.800 335.049 C 213.502 335.136,214.557 335.134,215.144 335.045 C 215.731 334.956,215.156 334.884,213.867 334.887 C 212.578 334.889,212.098 334.962,212.800 335.049 M225.684 335.041 C 226.167 335.134,226.958 335.134,227.441 335.041 C 227.925 334.948,227.529 334.872,226.563 334.872 C 225.596 334.872,225.200 334.948,225.684 335.041 " stroke="none" fill="#7795ac" fill-rule="evenodd"></path><path id="path4" d="M199.707 71.378 C 200.513 71.463,201.831 71.463,202.637 71.378 C 203.442 71.294,202.783 71.225,201.172 71.225 C 199.561 71.225,198.901 71.294,199.707 71.378 M302.514 94.238 L 301.367 95.508 302.637 94.361 C 303.335 93.729,303.906 93.158,303.906 93.091 C 303.906 92.789,303.584 93.055,302.514 94.238 M200.872 167.578 C 200.872 168.330,200.952 168.638,201.051 168.262 C 201.149 167.886,201.149 167.271,201.051 166.895 C 200.952 166.519,200.872 166.826,200.872 167.578 M121.973 185.827 C 122.563 185.916,123.530 185.916,124.121 185.827 C 124.712 185.737,124.229 185.664,123.047 185.664 C 121.865 185.664,121.382 185.737,121.973 185.827 M252.713 207.715 L 251.367 209.180 252.832 207.834 C 254.195 206.581,254.476 206.250,254.178 206.250 C 254.113 206.250,253.454 206.909,252.713 207.715 M200.684 222.932 C 201.167 223.025,201.958 223.025,202.441 222.932 C 202.925 222.839,202.529 222.763,201.563 222.763 C 200.596 222.763,200.200 222.839,200.684 222.932 M115.723 247.557 C 118.032 247.626,121.812 247.626,124.121 247.557 C 126.431 247.488,124.541 247.432,119.922 247.432 C 115.303 247.432,113.413 247.488,115.723 247.557 M149.316 247.553 C 150.337 247.633,152.007 247.633,153.027 247.553 C 154.048 247.472,153.213 247.406,151.172 247.406 C 149.131 247.406,148.296 247.472,149.316 247.553 M173.938 247.553 C 174.965 247.634,176.547 247.633,177.453 247.551 C 178.360 247.469,177.520 247.403,175.586 247.404 C 173.652 247.405,172.911 247.472,173.938 247.553 M225.694 247.552 C 226.613 247.635,228.019 247.634,228.819 247.550 C 229.619 247.466,228.867 247.398,227.148 247.400 C 225.430 247.401,224.775 247.470,225.694 247.552 M249.512 247.548 C 250.210 247.635,251.353 247.635,252.051 247.548 C 252.749 247.462,252.178 247.391,250.781 247.391 C 249.385 247.391,248.813 247.462,249.512 247.548 M281.934 247.541 C 282.417 247.634,283.208 247.634,283.691 247.541 C 284.175 247.448,283.779 247.372,282.813 247.372 C 281.846 247.372,281.450 247.448,281.934 247.541 M205.256 269.922 C 205.256 278.193,205.307 281.577,205.371 277.441 C 205.434 273.306,205.434 266.538,205.371 262.402 C 205.307 258.267,205.256 261.650,205.256 269.922 M119.674 259.180 C 119.675 261.328,119.741 262.157,119.820 261.022 C 119.899 259.887,119.898 258.129,119.818 257.116 C 119.738 256.103,119.673 257.031,119.674 259.180 M221.974 266.992 C 221.978 267.852,222.058 268.157,222.151 267.671 C 222.245 267.185,222.241 266.482,222.143 266.109 C 222.046 265.735,221.969 266.133,221.974 266.992 M119.648 283.203 C 119.648 284.385,119.722 284.868,119.811 284.277 C 119.901 283.687,119.901 282.720,119.811 282.129 C 119.722 281.538,119.648 282.021,119.648 283.203 M147.956 298.330 C 148.658 298.417,149.713 298.415,150.300 298.326 C 150.887 298.237,150.313 298.166,149.023 298.168 C 147.734 298.170,147.254 298.243,147.956 298.330 M172.949 298.329 C 173.647 298.416,174.790 298.416,175.488 298.329 C 176.187 298.243,175.615 298.172,174.219 298.172 C 172.822 298.172,172.251 298.243,172.949 298.329 M251.086 323.137 C 251.146 329.417,251.322 334.682,251.477 334.836 C 251.631 334.991,251.709 329.853,251.649 323.418 C 251.589 316.984,251.413 311.719,251.258 311.719 C 251.103 311.718,251.026 316.857,251.086 323.137 M277.065 328.023 C 278.308 328.101,280.242 328.101,281.362 328.022 C 282.482 327.943,281.465 327.880,279.102 327.880 C 276.738 327.881,275.822 327.946,277.065 328.023 " stroke="none" fill="#b4d0e3" fill-rule="evenodd"></path></g></svg>